# xmcd
# 
# Track frame offsets:
#     150
#     28933
#     57203
#     204412
# 
# Disc length: 3070
# 
# Revision: 0
# Processed by: cddbd v1.5.2PL0 Copyright (c) Steve Scherf et al.
# Submitted via: BonkEnc v1.0.8
# 
DISCID=310bfc04
DTITLE=Beverly A. Lujan - The American Accent Guide - Section 3
DYEAR=0
DGENRE=Speech
TTITLE0=Stress and Meaning
TTITLE1=Prefixes and Suffixes
TTITLE2=Suffixes and Stress Placement
TTITLE3=Proper Names, Titles and Times
EXTD=
EXTT0=
EXTT1=
EXTT2=
EXTT3=
PLAYORDER=
